HIERARCHY
ROOT hip
{
  OFFSET 0 90.174 2.4664
  CHANNELS 6 Xposition Yposition Zposition Zrotation Xrotation Yrotation
  JOINT abdomen
  {
    OFFSET 0 -1.186 -1.5018
    CHANNELS 6 Xposition Yposition Zposition Zrotation Xrotation Yrotation
    JOINT abdomen2
    {
      OFFSET 0 9.964 0.2134
      CHANNELS 6 Xposition Yposition Zposition Zrotation Xrotation Yrotation
      JOINT chest
      {
        OFFSET 0 13.134 -3.2573
        CHANNELS 6 Xposition Yposition Zposition Zrotation Xrotation Yrotation
        JOINT neck
        {
          OFFSET 0 20.686 -1.6905
          CHANNELS 6 Xposition Yposition Zposition Zrotation Xrotation Yrotation
          JOINT head
          {
            OFFSET 0 7.238 -0.1237
            CHANNELS 6 Xposition Yposition Zposition Zrotation Xrotation Yrotation
            End Site
            {
              OFFSET 0 0 0
            }
          }
        }
        JOINT lCollar
        {
          OFFSET 1.7069 20.075 5.0056
          CHANNELS 6 Xposition Yposition Zposition Zrotation Xrotation Yrotation
          JOINT lShldr
          {
            OFFSET 13.6458 -0.047 -4.849
            CHANNELS 6 Xposition Yposition Zposition Zrotation Xrotation Yrotation
            JOINT lForeArm
            {
              OFFSET 28.3255 -0.9759 2.2888
              CHANNELS 6 Xposition Yposition Zposition Zrotation Xrotation Yrotation
              JOINT lHand
              {
                OFFSET 22.1583 -0.53 10.8316
                CHANNELS 6 Xposition Yposition Zposition Zrotation Xrotation Yrotation
                JOINT lThumb1
                {
                  OFFSET 0.786 0.112 2.5817
                  CHANNELS 6 Xposition Yposition Zposition Zrotation Xrotation Yrotation
                  JOINT lThumb2
                  {
                    OFFSET 0.3601 -0.878 4.2331
                    CHANNELS 6 Xposition Yposition Zposition Zrotation Xrotation Yrotation
                    JOINT lThumb2_End
                    {
                      OFFSET 1.8127 -1.216 2.2227
                      CHANNELS 6 Xposition Yposition Zposition Zrotation Xrotation Yrotation
                      End Site
                      {
                        OFFSET 0.0181 -0.0122 0.0222
                      }
                    }
                  }
                }
                JOINT lCarpal1
                {
                  OFFSET 0.9571 1.114 1.7695
                  CHANNELS 6 Xposition Yposition Zposition Zrotation Xrotation Yrotation
                  JOINT lIndex1
                  {
                    OFFSET 4.1246 0.487 4.1451
                    CHANNELS 6 Xposition Yposition Zposition Zrotation Xrotation Yrotation
                    JOINT lIndex2
                    {
                      OFFSET 3.4052 -1.454 2.7682
                      CHANNELS 6 Xposition Yposition Zposition Zrotation Xrotation Yrotation
                      JOINT lIndex2_End
                      {
                        OFFSET 1.4531 -1.795 1.2713
                        CHANNELS 6 Xposition Yposition Zposition Zrotation Xrotation Yrotation
                        End Site
                        {
                          OFFSET 0.0145 -0.0179 0.0127
                        }
                      }
                    }
                  }
                  JOINT lMid1
                  {
                    OFFSET 5.6954 0.21 2.1184
                    CHANNELS 6 Xposition Yposition Zposition Zrotation Xrotation Yrotation
                    JOINT lMid2
                    {
                      OFFSET 3.9766 -1.54 2.3863
                      CHANNELS 6 Xposition Yposition Zposition Zrotation Xrotation Yrotation
                      JOINT lMid2_End
                      {
                        OFFSET 1.4042 -1.926 1.125
                        CHANNELS 6 Xposition Yposition Zposition Zrotation Xrotation Yrotation
                        End Site
                        {
                          OFFSET 0.014 -0.0193 0.0113
                        }
                      }
                    }
                  }
                }
                JOINT lCarpal2
                {
                  OFFSET 2.0956 0.66 -0.3894
                  CHANNELS 6 Xposition Yposition Zposition Zrotation Xrotation Yrotation
                  JOINT lRing1
                  {
                    OFFSET 5.0395 -0.09 2.4971
                    CHANNELS 6 Xposition Yposition Zposition Zrotation Xrotation Yrotation
                    JOINT lRing2
                    {
                      OFFSET 3.7921 -1.552 1.4806
                      CHANNELS 6 Xposition Yposition Zposition Zrotation Xrotation Yrotation
                      JOINT lRing2_End
                      {
                        OFFSET 1.4655 -1.808 0.9609
                        CHANNELS 6 Xposition Yposition Zposition Zrotation Xrotation Yrotation
                        End Site
                        {
                          OFFSET 0.0147 -0.0181 0.0096
                        }
                      }
                    }
                  }
                  JOINT lPinky1
                  {
                    OFFSET 4.9141 -1.269 0.3591
                    CHANNELS 6 Xposition Yposition Zposition Zrotation Xrotation Yrotation
                    JOINT lPinky2
                    {
                      OFFSET 3.1477 -1.685 0.8462
                      CHANNELS 6 Xposition Yposition Zposition Zrotation Xrotation Yrotation
                      JOINT lPinky2_End
                      {
                        OFFSET 0.8055 -1.585 0.7955
                        CHANNELS 6 Xposition Yposition Zposition Zrotation Xrotation Yrotation
                        End Site
                        {
                          OFFSET 0.0081 -0.0158 0.008
                        }
                      }
                    }
                  }
                }
              }
            }
          }
        }
        JOINT rCollar
        {
          OFFSET -1.7069 20.075 5.0056
          CHANNELS 6 Xposition Yposition Zposition Zrotation Xrotation Yrotation
          JOINT rShldr
          {
            OFFSET -13.6458 -0.047 -4.849
            CHANNELS 6 Xposition Yposition Zposition Zrotation Xrotation Yrotation
            JOINT rForeArm
            {
              OFFSET -28.3255 -0.9759 2.2888
              CHANNELS 6 Xposition Yposition Zposition Zrotation Xrotation Yrotation
              JOINT rHand
              {
                OFFSET -22.1583 -0.53 10.8316
                CHANNELS 6 Xposition Yposition Zposition Zrotation Xrotation Yrotation
                JOINT rThumb1
                {
                  OFFSET -0.786 0.112 2.5817
                  CHANNELS 6 Xposition Yposition Zposition Zrotation Xrotation Yrotation
                  JOINT rThumb2
                  {
                    OFFSET -0.3601 -0.878 4.2331
                    CHANNELS 6 Xposition Yposition Zposition Zrotation Xrotation Yrotation
                    JOINT rThumb2_End
                    {
                      OFFSET -1.8127 -1.216 2.2227
                      CHANNELS 6 Xposition Yposition Zposition Zrotation Xrotation Yrotation
                      End Site
                      {
                        OFFSET -0.0181 -0.0122 0.0222
                      }
                    }
                  }
                }
                JOINT rCarpal1
                {
                  OFFSET -0.9571 1.114 1.7695
                  CHANNELS 6 Xposition Yposition Zposition Zrotation Xrotation Yrotation
                  JOINT rIndex1
                  {
                    OFFSET -4.1246 0.487 4.1451
                    CHANNELS 6 Xposition Yposition Zposition Zrotation Xrotation Yrotation
                    JOINT rIndex2
                    {
                      OFFSET -3.4052 -1.454 2.7682
                      CHANNELS 6 Xposition Yposition Zposition Zrotation Xrotation Yrotation
                      JOINT rIndex2_End
                      {
                        OFFSET -1.4531 -1.795 1.2713
                        CHANNELS 6 Xposition Yposition Zposition Zrotation Xrotation Yrotation
                        End Site
                        {
                          OFFSET -0.0145 -0.018 0.0127
                        }
                      }
                    }
                  }
                  JOINT rMid1
                  {
                    OFFSET -5.6954 0.21 2.1184
                    CHANNELS 6 Xposition Yposition Zposition Zrotation Xrotation Yrotation
                    JOINT rMid2
                    {
                      OFFSET -3.9766 -1.54 2.3863
                      CHANNELS 6 Xposition Yposition Zposition Zrotation Xrotation Yrotation
                      JOINT rMid2_End
                      {
                        OFFSET -1.4042 -1.926 1.125
                        CHANNELS 6 Xposition Yposition Zposition Zrotation Xrotation Yrotation
                        End Site
                        {
                          OFFSET -0.014 -0.0193 0.0113
                        }
                      }
                    }
                  }
                }
                JOINT rCarpal2
                {
                  OFFSET -2.0956 0.66 -0.3894
                  CHANNELS 6 Xposition Yposition Zposition Zrotation Xrotation Yrotation
                  JOINT rRing1
                  {
                    OFFSET -5.0395 -0.09 2.4971
                    CHANNELS 6 Xposition Yposition Zposition Zrotation Xrotation Yrotation
                    JOINT rRing2
                    {
                      OFFSET -3.7921 -1.552 1.4806
                      CHANNELS 6 Xposition Yposition Zposition Zrotation Xrotation Yrotation
                      JOINT rRing2_End
                      {
                        OFFSET -1.4655 -1.808 0.9609
                        CHANNELS 6 Xposition Yposition Zposition Zrotation Xrotation Yrotation
                        End Site
                        {
                          OFFSET -0.0147 -0.0181 0.0096
                        }
                      }
                    }
                  }
                  JOINT rPinky1
                  {
                    OFFSET -4.9141 -1.269 0.3592
                    CHANNELS 6 Xposition Yposition Zposition Zrotation Xrotation Yrotation
                    JOINT rPinky2
                    {
                      OFFSET -3.1477 -1.685 0.8462
                      CHANNELS 6 Xposition Yposition Zposition Zrotation Xrotation Yrotation
                      JOINT rPinky2_End
                      {
                        OFFSET -0.8055 -1.585 0.7955
                        CHANNELS 6 Xposition Yposition Zposition Zrotation Xrotation Yrotation
                        End Site
                        {
                          OFFSET -0.0081 -0.0158 0.008
                        }
                      }
                    }
                  }
                }
              }
            }
          }
        }
      }
    }
  }
  JOINT lThigh
  {
    OFFSET 8.367 -8.2066 0.5982
    CHANNELS 6 Xposition Yposition Zposition Zrotation Xrotation Yrotation
    JOINT lShin
    {
      OFFSET 2.1923 -43.463 -0.4932
      CHANNELS 6 Xposition Yposition Zposition Zrotation Xrotation Yrotation
      JOINT lFoot
      {
        OFFSET 0.7333 -45.8593 -2.6451
        CHANNELS 6 Xposition Yposition Zposition Zrotation Xrotation Yrotation
        End Site
        {
          OFFSET 2.6618 -4.2699 12.3931
        }
      }
    }
  }
  JOINT rThigh
  {
    OFFSET -8.367 -8.2066 0.5982
    CHANNELS 6 Xposition Yposition Zposition Zrotation Xrotation Yrotation
    JOINT rShin
    {
      OFFSET -2.1923 -43.463 -0.4931
      CHANNELS 6 Xposition Yposition Zposition Zrotation Xrotation Yrotation
      JOINT rFoot
      {
        OFFSET -0.7333 -45.8593 -2.6451
        CHANNELS 6 Xposition Yposition Zposition Zrotation Xrotation Yrotation
        End Site
        {
          OFFSET -2.6618 -4.2699 12.3931
        }
      }
    }
  }
}
MOTION
Frames:	4
Frame Time:	0.0333333
0 90.174 2.4664 0 0 -0 0 -1.186 -1.5018 0 0 -0 0 9.964 0.2134 0 0 -0 0 13.134 -3.2573 0 0 -0 0 20.686 -1.6905 0 0 -0 0 7.238 -0.1237 0 0 -0 1.7069 20.075 5.0056 0 0 -0 13.6458 -0.047 -4.849 1.66051 0.0835086 5.75766 28.3255 -0.9759 2.2888 -0.0175111 0.895433 15.7816 22.1583 -0.53 10.8316 7.95139e-016 -1.98785e-016 -0 0.786 0.112 2.5817 5.46658e-016 -3.97569e-016 -0 0.3601 -0.878 4.2331 5.96354e-016 0 -0 1.8127 -1.216 2.2227 3.97569e-016 1.98785e-016 9.54166e-015 0.9571 1.114 1.7695 1.49089e-016 -3.97569e-016 -0 4.1246 0.487 4.1451 6.4605e-016 0 3.18055e-015 3.4052 -1.454 2.7682 5.96354e-016 0 3.18055e-015 1.4531 -1.795 1.2713 8.94531e-016 -1.98785e-016 6.36111e-015 5.6954 0.21 2.1184 6.4605e-016 0 3.18055e-015 3.9766 -1.54 2.3863 5.96354e-016 0 3.18055e-015 1.4042 -1.926 1.125 8.94531e-016 -1.98785e-016 6.36111e-015 2.0956 0.66 -0.3894 1.49089e-016 -3.97569e-016 -0 5.0395 -0.09 2.4971 6.4605e-016 0 3.18055e-015 3.7921 -1.552 1.4806 5.96354e-016 0 3.18055e-015 1.4655 -1.808 0.9609 8.94531e-016 -1.98785e-016 6.36111e-015 4.9141 -1.269 0.3591 6.4605e-016 0 3.18055e-015 3.1477 -1.685 0.8462 5.96354e-016 0 3.18055e-015 0.8055 -1.585 0.7955 8.94531e-016 -1.98785e-016 6.36111e-015 -1.7069 20.075 5.0056 0 0 -0 -13.6458 -0.047 -4.849 -1.4496 0.0636048 -5.0245 -28.3255 -0.9759 2.2888 -1.74811 1.20616 -16.8394 -22.1583 -0.53 10.8316 -1.19271e-015 1.98785e-016 -3.18055e-015 -0.786 0.112 2.5817 -3.97569e-016 1.98785e-016 -3.18055e-015 -0.3601 -0.878 4.2331 -2.98177e-016 1.98785e-016 -3.18055e-015 -1.8127 -1.216 2.2227 -2.98177e-016 3.97569e-016 -0 -0.9571 1.114 1.7695 4.96962e-016 0 -6.36111e-015 -4.1246 0.487 4.1451 -9.93923e-017 3.97569e-016 -0 -3.4052 -1.454 2.7682 -8.94531e-016 5.96354e-016 -0 -1.4531 -1.795 1.2713 -3.97569e-016 3.97569e-016 -0 -5.6954 0.21 2.1184 -9.93923e-017 3.97569e-016 -0 -3.9766 -1.54 2.3863 -8.94531e-016 5.96354e-016 -0 -1.4042 -1.926 1.125 -3.97569e-016 3.97569e-016 -0 -2.0956 0.66 -0.3894 4.96962e-016 0 -6.36111e-015 -5.0395 -0.09 2.4971 -9.93923e-017 3.97569e-016 -0 -3.7921 -1.552 1.4806 -8.94531e-016 5.96354e-016 -0 -1.4655 -1.808 0.9609 -3.97569e-016 3.97569e-016 -0 -4.9141 -1.269 0.3592 -9.93923e-017 3.97569e-016 -0 -3.1477 -1.685 0.8462 -8.94531e-016 5.96354e-016 -0 -0.8055 -1.585 0.7955 -3.97569e-016 3.97569e-016 -0 8.367 -8.2066 0.5982 -4.66115 -1.03232 0.120763 2.1923 -43.463 -0.4932 0.00990601 1.55097 0.177175 0.7333 -45.8593 -2.6451 4.65196 -0.54114 -0.255042 -8.367 -8.2066 0.5982 4.66115 -1.03222 -0.120763 -2.1923 -43.463 -0.4931 -0.00990459 1.5509 -0.177176 -0.7333 -45.8593 -2.6451 -4.65196 -0.541171 0.255041 
-0.727476 -2.11655 -6.38606 -180 -85.9956 -180 0 -1.186 -1.5018 -0.295155 2.29978 -0.186457 0 9.964 0.2134 -0.583516 4.60047 -0.361479 0 13.134 -3.2573 -0.583517 4.60046 -0.36148 0 20.686 -1.6905 2.49234e-005 -3.00266 7.81551e-006 2.22045e-016 7.238 -0.1237 -7.56135e-008 7.99914 -3.39648e-007 1.7069 20.075 5.0056 -4.39743 -20.5217 17.5533 13.6458 -0.047 -4.849 93.459 0.179293 0.476635 28.3255 -0.9759 2.2888 1.68352 -0.280765 11.2313 22.1583 -0.53 10.8316 -2.87994 -44.9627 22.7075 0.786 0.112 2.5817 -1.27618e-006 2.57191e-006 -1.78597e-006 0.3601 -0.878 4.2331 -5.78191e-006 -1.26641e-006 -1.85182e-006 1.8127 -1.216 2.2227 -1.59028e-015 -1.59028e-015 -3.18055e-015 0.9571 1.114 1.7695 -1.59028e-015 7.95139e-016 -0 4.1246 0.487 4.1451 -1.27618e-006 2.57191e-006 -1.78597e-006 3.4052 -1.454 2.7682 -5.78191e-006 -1.26641e-006 -1.85182e-006 1.4531 -1.795 1.2713 -0 -2.38542e-015 -0 5.6954 0.21 2.1184 -1.27618e-006 2.57191e-006 -1.78597e-006 3.9766 -1.54 2.3863 -5.78191e-006 -1.26641e-006 -1.85182e-006 1.4042 -1.926 1.125 -0 -2.38542e-015 -0 2.0956 0.66 -0.3894 -1.59028e-015 7.95139e-016 -0 5.0395 -0.09 2.4971 -1.27618e-006 2.57191e-006 -1.78597e-006 3.7921 -1.552 1.4806 -5.78191e-006 -1.26641e-006 -1.85182e-006 1.4655 -1.808 0.9609 -0 -2.38542e-015 -0 4.9141 -1.269 0.3591 -1.27618e-006 2.57191e-006 -1.78597e-006 3.1477 -1.685 0.8462 -5.78191e-006 -1.26641e-006 -1.85182e-006 0.8055 -1.585 0.7955 -0 -2.38542e-015 -0 -1.7069 20.075 5.0056 4.3 -20.4681 -17.7438 -13.6458 -0.047 -4.849 -93.3368 0.159895 0.255586 -28.3255 -0.9759 2.2888 -3.50892 -0.0645801 -12.3355 -22.1583 -0.53 10.8316 2.8105 -44.5339 -24.1731 -0.786 0.112 2.5817 1.6544e-006 3.51375e-008 1.03308e-006 -0.3601 -0.878 4.2331 -9.84746e-007 1.20883e-006 -9.74155e-008 -1.8127 -1.216 2.2227 1.6544e-006 3.51376e-008 1.03308e-006 -0.9571 1.114 1.7695 -3.18055e-015 0 -9.54166e-015 -4.1246 0.487 4.1451 1.6544e-006 3.51375e-008 1.03308e-006 -3.4052 -1.454 2.7682 -9.84746e-007 1.20883e-006 -9.74155e-008 -1.4531 -1.795 1.2713 1.6544e-006 3.51376e-008 1.03308e-006 -5.6954 0.21 2.1184 1.6544e-006 3.51375e-008 1.03308e-006 -3.9766 -1.54 2.3863 -9.84746e-007 1.20883e-006 -9.74155e-008 -1.4042 -1.926 1.125 1.6544e-006 3.51376e-008 1.03308e-006 -2.0956 0.66 -0.3894 -3.18055e-015 0 -9.54166e-015 -5.0395 -0.09 2.4971 1.6544e-006 3.51375e-008 1.03308e-006 -3.7921 -1.552 1.4806 -9.84746e-007 1.20883e-006 -9.74155e-008 -1.4655 -1.808 0.9609 1.6544e-006 3.51376e-008 1.03308e-006 -4.9141 -1.269 0.3592 1.6544e-006 3.51375e-008 1.03308e-006 -3.1477 -1.685 0.8462 -9.84746e-007 1.20883e-006 -9.74155e-008 -0.8055 -1.585 0.7955 1.6544e-006 3.51376e-008 1.03308e-006 8.367 -8.2066 0.5982 101.299 -49.5621 130.395 2.1923 -43.463 -0.4932 -0.551757 11.9313 -8.15791 0.7333 -45.8593 -2.6451 18.3217 12.4197 -18.9358 -8.367 -8.2066 0.5982 -101.252 -49.487 -130.376 -2.1923 -43.463 -0.4931 0.574915 11.9073 8.12809 -0.7333 -45.8593 -2.6451 -18.5457 12.9289 19.0256 
-0.727482 -2.11806 -6.4145 -180 -85.9956 -180 0 -1.186 -1.5018 -0.295151 2.29974 -0.186454 0 9.964 0.2134 -0.58351 4.60043 -0.361475 1.11022e-016 13.134 -3.2573 -0.583509 4.60043 -0.361475 0 20.686 -1.6905 1.78312e-005 -2.50294 -2.47884e-006 0 7.238 -0.1237 2.01287e-007 7.99913 -2.91261e-007 1.7069 20.075 5.0056 -4.39745 -20.5216 17.5533 13.6458 -0.047 -4.849 93.459 0.179298 0.476626 28.3255 -0.9759 2.2888 1.68353 -0.280777 11.2313 22.1583 -0.53 10.8316 -2.87997 -44.9627 22.7075 0.786 0.112 2.5817 2.20695e-031 3.97569e-015 -3.18055e-015 0.3601 -0.878 4.2331 -3.18055e-015 2.38542e-015 -3.18055e-015 1.8127 -1.216 2.2227 -1.59028e-015 2.38542e-015 3.18055e-015 0.9571 1.114 1.7695 1.59028e-015 7.95139e-016 -3.18055e-015 4.1246 0.487 4.1451 3.18055e-015 3.97569e-015 9.54166e-015 3.4052 -1.454 2.7682 0 3.97569e-015 -0 1.4531 -1.795 1.2713 -1.59028e-015 3.18055e-015 3.18055e-015 5.6954 0.21 2.1184 3.18055e-015 3.97569e-015 9.54166e-015 3.9766 -1.54 2.3863 0 3.97569e-015 -0 1.4042 -1.926 1.125 -1.59028e-015 3.18055e-015 3.18055e-015 2.0956 0.66 -0.3894 1.59028e-015 7.95139e-016 -3.18055e-015 5.0395 -0.09 2.4971 3.18055e-015 3.97569e-015 9.54166e-015 3.7921 -1.552 1.4806 0 3.97569e-015 -0 1.4655 -1.808 0.9609 -1.59028e-015 3.18055e-015 3.18055e-015 4.9141 -1.269 0.3591 3.18055e-015 3.97569e-015 9.54166e-015 3.1477 -1.685 0.8462 0 3.97569e-015 -0 0.8055 -1.585 0.7955 -1.59028e-015 3.18055e-015 3.18055e-015 -1.7069 20.075 5.0056 4.29997 -20.468 -17.7438 -13.6458 -0.047 -4.849 -93.3368 0.159903 0.255607 -28.3255 -0.9759 2.2888 -3.50891 -0.0645918 -12.3355 -22.1583 -0.53 10.8316 2.81053 -44.5339 -24.1731 -0.786 0.112 2.5817 -1.3393e-006 -2.48793e-006 -1.87134e-006 -0.3601 -0.878 4.2331 1.59028e-015 6.36111e-015 -0 -1.8127 -1.216 2.2227 -1.3393e-006 -2.48793e-006 -1.87134e-006 -0.9571 1.114 1.7695 -6.36111e-015 -7.95139e-015 -6.36111e-015 -4.1246 0.487 4.1451 -1.3393e-006 -2.48793e-006 -1.87134e-006 -3.4052 -1.454 2.7682 1.76556e-031 3.18055e-015 -3.18055e-015 -1.4531 -1.795 1.2713 -1.3393e-006 -2.48793e-006 -1.87134e-006 -5.6954 0.21 2.1184 -1.3393e-006 -2.48793e-006 -1.87134e-006 -3.9766 -1.54 2.3863 1.76556e-031 3.18055e-015 -3.18055e-015 -1.4042 -1.926 1.125 -1.3393e-006 -2.48793e-006 -1.87134e-006 -2.0956 0.66 -0.3894 -6.36111e-015 -7.95139e-015 -6.36111e-015 -5.0395 -0.09 2.4971 -1.3393e-006 -2.48793e-006 -1.87134e-006 -3.7921 -1.552 1.4806 1.76556e-031 3.18055e-015 -3.18055e-015 -1.4655 -1.808 0.9609 -1.3393e-006 -2.48793e-006 -1.87134e-006 -4.9141 -1.269 0.3592 -1.3393e-006 -2.48793e-006 -1.87134e-006 -3.1477 -1.685 0.8462 1.76556e-031 3.18055e-015 -3.18055e-015 -0.8055 -1.585 0.7955 -1.3393e-006 -2.48793e-006 -1.87134e-006 8.367 -8.2066 0.5982 101.269 -49.5682 130.404 2.1923 -43.463 -0.4932 -0.552131 12.4316 -8.1309 0.7333 -45.8593 -2.6451 18.3106 12.4513 -18.9383 -8.367 -8.2066 0.5982 -101.222 -49.4929 -130.385 -2.1923 -43.463 -0.4931 0.575289 12.4082 8.10099 -0.7333 -45.8593 -2.6451 -18.5347 12.9601 19.0281 
-0.727488 -2.1194 -6.44282 -180 -85.9956 -180 0 -1.186 -1.5018 -0.295155 2.29978 -0.186457 0 9.964 0.2134 -0.583516 4.60047 -0.361479 0 13.134 -3.2573 -0.583517 4.60046 -0.36148 2.22045e-016 20.686 -1.6905 2.30318e-005 -2.00323 6.14357e-006 2.22045e-016 7.238 -0.1237 3.36071e-007 7.99914 8.79642e-008 1.7069 20.075 5.0056 -4.39743 -20.5217 17.5533 13.6458 -0.047 -4.849 93.459 0.179296 0.476641 28.3255 -0.9759 2.2888 1.68352 -0.280769 11.2313 22.1583 -0.53 10.8316 -2.87996 -44.9627 22.7075 0.786 0.112 2.5817 -1.59028e-015 1.59028e-015 3.18055e-015 0.3601 -0.878 4.2331 -3.18055e-015 4.77083e-015 9.54166e-015 1.8127 -1.216 2.2227 -4.77083e-015 7.15625e-015 9.54166e-015 0.9571 1.114 1.7695 -3.18055e-015 1.59028e-015 -9.54166e-015 4.1246 0.487 4.1451 -1.59028e-015 3.97569e-015 6.36111e-015 3.4052 -1.454 2.7682 -8.82781e-032 7.95139e-016 6.36111e-015 1.4531 -1.795 1.2713 -1.76556e-031 7.95139e-016 1.27222e-014 5.6954 0.21 2.1184 -1.59028e-015 3.97569e-015 6.36111e-015 3.9766 -1.54 2.3863 -8.82781e-032 7.95139e-016 6.36111e-015 1.4042 -1.926 1.125 -1.76556e-031 7.95139e-016 1.27222e-014 2.0956 0.66 -0.3894 -3.18055e-015 1.59028e-015 -9.54166e-015 5.0395 -0.09 2.4971 -1.59028e-015 3.97569e-015 6.36111e-015 3.7921 -1.552 1.4806 -8.82781e-032 7.95139e-016 6.36111e-015 1.4655 -1.808 0.9609 -1.76556e-031 7.95139e-016 1.27222e-014 4.9141 -1.269 0.3591 -1.59028e-015 3.97569e-015 6.36111e-015 3.1477 -1.685 0.8462 -8.82781e-032 7.95139e-016 6.36111e-015 0.8055 -1.585 0.7955 -1.76556e-031 7.95139e-016 1.27222e-014 -1.7069 20.075 5.0056 4.3 -20.4681 -17.7438 -13.6458 -0.047 -4.849 -93.3368 0.159904 0.255602 -28.3255 -0.9759 2.2888 -3.50889 -0.0645961 -12.3355 -22.1583 -0.53 10.8316 2.81053 -44.5339 -24.1731 -0.786 0.112 2.5817 -2.07561e-006 -1.90648e-006 1.45485e-006 -0.3601 -0.878 4.2331 7.36305e-007 -5.81457e-007 -3.32619e-006 -1.8127 -1.216 2.2227 -2.07561e-006 -1.90648e-006 1.45485e-006 -0.9571 1.114 1.7695 1.59028e-015 1.59028e-015 6.36111e-015 -4.1246 0.487 4.1451 -2.07561e-006 -1.90648e-006 1.45485e-006 -3.4052 -1.454 2.7682 7.36305e-007 -5.81457e-007 -3.32619e-006 -1.4531 -1.795 1.2713 -2.07561e-006 -1.90648e-006 1.45485e-006 -5.6954 0.21 2.1184 -2.07561e-006 -1.90648e-006 1.45485e-006 -3.9766 -1.54 2.3863 7.36305e-007 -5.81457e-007 -3.32619e-006 -1.4042 -1.926 1.125 -2.07561e-006 -1.90648e-006 1.45485e-006 -2.0956 0.66 -0.3894 1.59028e-015 1.59028e-015 6.36111e-015 -5.0395 -0.09 2.4971 -2.07561e-006 -1.90648e-006 1.45485e-006 -3.7921 -1.552 1.4806 7.36305e-007 -5.81457e-007 -3.32619e-006 -1.4655 -1.808 0.9609 -2.07561e-006 -1.90648e-006 1.45485e-006 -4.9141 -1.269 0.3592 -2.07561e-006 -1.90648e-006 1.45485e-006 -3.1477 -1.685 0.8462 7.36305e-007 -5.81457e-007 -3.32619e-006 -0.8055 -1.585 0.7955 -2.07561e-006 -1.90648e-006 1.45485e-006 8.367 -8.2066 0.5982 101.239 -49.5747 130.412 2.1923 -43.463 -0.4932 -0.552528 12.9309 -8.10401 0.7333 -45.8593 -2.6451 18.2995 12.4836 -18.9408 -8.367 -8.2066 0.5982 -101.192 -49.4992 -130.393 -2.1923 -43.463 -0.4931 0.575721 12.9081 8.07409 -0.7333 -45.8593 -2.6451 -18.5237 12.9921 19.0306 
